<svg width="60" height="62" viewBox="0 0 60 62" fill="none" xmlns="http://www.w3.org/2000/svg">
<g clip-path="url(#clip0_301_2)">
<path d="M21.8798 61.57C20.8316 61.57 19.8069 61.2591 18.9353 60.6768C18.0637 60.0944 17.3844 59.2666 16.9833 58.2982C16.5821 57.3297 16.4772 56.2641 16.6817 55.236C16.8862 54.2079 17.391 53.2635 18.1322 52.5223C18.8734 51.7811 19.8178 51.2763 20.8459 51.0718C21.874 50.8673 22.9396 50.9723 23.9081 51.3734C24.8765 51.7746 25.7043 52.4539 26.2866 53.3255C26.869 54.197 27.1798 55.2217 27.1798 56.27C27.1772 57.6748 26.618 59.0213 25.6246 60.0147C24.6312 61.0081 23.2847 61.5673 21.8798 61.57Z" fill="#FF7799"/>
<path d="M21.8798 51.22C22.8644 51.2299 23.8242 51.5302 24.6387 52.0834C25.4532 52.6366 26.0863 53.418 26.4585 54.3295C26.8308 55.2411 26.9256 56.2423 26.731 57.2075C26.5365 58.1727 26.0614 59.059 25.3651 59.7552C24.6689 60.4515 23.7826 60.9267 22.8174 61.1212C21.8521 61.3157 20.851 61.2209 19.9394 60.8487C19.0278 60.4764 18.2465 59.8434 17.6933 59.0288C17.1401 58.2143 16.8397 57.2545 16.8298 56.27C16.8232 55.6049 16.9492 54.9452 17.2006 54.3295C17.452 53.7138 17.8238 53.1545 18.2941 52.6842C18.7643 52.2139 19.3237 51.8422 19.9394 51.5908C20.5551 51.3393 21.2148 51.2133 21.8798 51.22ZM21.8798 50.72C20.7821 50.72 19.7091 51.0455 18.7964 51.6553C17.8837 52.2652 17.1724 53.1319 16.7523 54.1461C16.3322 55.1602 16.2223 56.2761 16.4365 57.3527C16.6506 58.4293 17.1792 59.4182 17.9554 60.1944C18.7316 60.9706 19.7205 61.4992 20.7971 61.7133C21.8737 61.9275 22.9896 61.8176 24.0037 61.3975C25.0179 60.9774 25.8847 60.2661 26.4945 59.3534C27.1043 58.4407 27.4298 57.3677 27.4298 56.27C27.4272 54.7988 26.8416 53.3887 25.8014 52.3484C24.7611 51.3082 23.351 50.7226 21.8798 50.72Z" fill="#4D4D4D"/>
<path d="M21.8799 58.2C21.4954 58.202 21.1189 58.0897 20.7984 57.8773C20.4778 57.6649 20.2276 57.362 20.0795 57.0071C19.9314 56.6522 19.8922 56.2613 19.9667 55.884C20.0413 55.5068 20.2262 55.1602 20.4981 54.8883C20.7701 54.6164 21.1166 54.4314 21.4939 54.3569C21.8712 54.2823 22.262 54.3216 22.6169 54.4697C22.9718 54.6177 23.2747 54.8679 23.4871 55.1885C23.6995 55.509 23.8119 55.8855 23.8099 56.27C23.8099 56.7819 23.6066 57.2728 23.2446 57.6348C22.8827 57.9967 22.3918 58.2 21.8799 58.2Z" fill="#F44C81"/>
<path d="M21.8799 54.58C22.2146 54.578 22.5423 54.6754 22.8216 54.8599C23.1008 55.0444 23.319 55.3077 23.4484 55.6163C23.5778 55.9249 23.6127 56.265 23.5487 56.5935C23.4846 56.922 23.3244 57.2241 23.0885 57.4614C22.8525 57.6988 22.5514 57.8607 22.2233 57.9267C21.8952 57.9928 21.5549 57.9599 21.2455 57.8323C20.9361 57.7047 20.6716 57.4881 20.4855 57.2099C20.2993 56.9318 20.1999 56.6047 20.1999 56.27C20.1999 55.8235 20.3766 55.3951 20.6914 55.0785C21.0062 54.7618 21.4335 54.5826 21.8799 54.58ZM21.8799 54.08C21.4464 54.078 21.022 54.2048 20.6605 54.4442C20.2991 54.6836 20.0168 55.025 19.8495 55.4249C19.6822 55.8249 19.6374 56.2656 19.7208 56.6911C19.8042 57.1165 20.012 57.5077 20.3178 57.815C20.6237 58.1223 21.0139 58.3318 21.439 58.4171C21.8641 58.5025 22.3049 58.4597 22.7057 58.2942C23.1064 58.1288 23.4491 57.8481 23.6901 57.4877C23.9312 57.1274 24.0599 56.7035 24.0599 56.27C24.0599 55.6909 23.8306 55.1354 23.422 54.7249C23.0135 54.3145 22.459 54.0826 21.8799 54.08Z" fill="#4D4D4D"/>
<path d="M45.6699 61.57C44.623 61.5641 43.6012 61.2482 42.7336 60.6623C41.866 60.0763 41.1913 59.2465 40.7948 58.2775C40.3982 57.3086 40.2976 56.2439 40.5054 55.2178C40.7133 54.1916 41.2204 53.2501 41.9628 52.5119C42.7052 51.7736 43.6496 51.2718 44.6769 51.0698C45.7042 50.8677 46.7683 50.9744 47.735 51.3764C48.7017 51.7784 49.5277 52.4577 50.1087 53.3286C50.6898 54.1995 50.9999 55.223 50.9999 56.27C50.9986 56.9682 50.8596 57.6592 50.5909 58.3036C50.3222 58.948 49.9291 59.5331 49.434 60.0254C48.939 60.5176 48.3517 60.9075 47.7058 61.1725C47.0599 61.4376 46.3681 61.5726 45.6699 61.57Z" fill="#FF7799"/>
<path d="M45.6699 51.22C46.6544 51.2299 47.6142 51.5302 48.4287 52.0834C49.2433 52.6366 49.8764 53.418 50.2486 54.3295C50.6208 55.2411 50.7156 56.2423 50.5211 57.2075C50.3266 58.1727 49.8514 59.059 49.1552 59.7552C48.4589 60.4515 47.5726 60.9267 46.6074 61.1212C45.6422 61.3157 44.641 61.2209 43.7294 60.8487C42.8179 60.4764 42.0365 59.8434 41.4833 59.0288C40.9301 58.2143 40.6298 57.2545 40.6199 56.27C40.6132 55.6049 40.7392 54.9452 40.9907 54.3295C41.2421 53.7138 41.6138 53.1545 42.0841 52.6842C42.5544 52.2139 43.1137 51.8422 43.7294 51.5908C44.3452 51.3393 45.0048 51.2133 45.6699 51.22ZM45.6699 50.72C44.5722 50.72 43.4992 51.0455 42.5865 51.6553C41.6738 52.2652 40.9624 53.1319 40.5423 54.1461C40.1223 55.1602 40.0124 56.2761 40.2265 57.3527C40.4407 58.4293 40.9692 59.4182 41.7454 60.1944C42.5216 60.9706 43.5105 61.4992 44.5871 61.7133C45.6637 61.9275 46.7796 61.8176 47.7938 61.3975C48.8079 60.9774 49.6747 60.2661 50.2845 59.3534C50.8944 58.4407 51.2199 57.3677 51.2199 56.27C51.2172 54.7988 50.6317 53.3887 49.5914 52.3484C48.5511 51.3082 47.141 50.7226 45.6699 50.72Z" fill="#4D4D4D"/>
<path d="M45.67 58.2C46.7359 58.2 47.6 57.3359 47.6 56.27C47.6 55.2041 46.7359 54.34 45.67 54.34C44.6041 54.34 43.74 55.2041 43.74 56.27C43.74 57.3359 44.6041 58.2 45.67 58.2Z" fill="#F44C81"/>
<path d="M45.67 54.58C46.0051 54.576 46.3338 54.6717 46.6143 54.855C46.8948 55.0383 47.1146 55.3008 47.2455 55.6092C47.3765 55.9177 47.4129 56.2581 47.3499 56.5872C47.287 56.9164 47.1276 57.2194 46.8921 57.4577C46.6566 57.6961 46.3555 57.859 46.0271 57.9259C45.6988 57.9927 45.3579 57.9604 45.048 57.8331C44.738 57.7058 44.4729 57.4893 44.2863 57.2109C44.0997 56.9326 44 56.6051 44 56.27C44 55.8235 44.1767 55.3951 44.4914 55.0785C44.8062 54.7618 45.2335 54.5826 45.68 54.58M45.68 54.08C45.2468 54.08 44.8234 54.2084 44.4633 54.449C44.1031 54.6897 43.8225 55.0317 43.6567 55.4319C43.4909 55.832 43.4476 56.2724 43.5321 56.6972C43.6166 57.122 43.8251 57.5122 44.1314 57.8185C44.4377 58.1248 44.8279 58.3334 45.2527 58.4179C45.6776 58.5024 46.1179 58.459 46.5181 58.2933C46.9182 58.1275 47.2603 57.8468 47.5009 57.4867C47.7415 57.1265 47.87 56.7031 47.87 56.27C47.87 55.6891 47.6393 55.1321 47.2286 54.7214C46.8179 54.3107 46.2608 54.08 45.68 54.08Z" fill="#4D4D4D"/>
<path d="M17.0998 51C15.8293 50.9974 14.6115 50.4922 13.7122 49.5948C12.8128 48.6973 12.3051 47.4805 12.2998 46.21C12.2957 45.0496 12.7166 43.9277 13.483 43.0563C14.2494 42.1849 15.3083 41.6242 16.4598 41.48H16.5298C16.7162 41.4348 16.9084 41.418 17.0998 41.43C17.3046 41.4314 17.5063 41.4792 17.6898 41.57C17.7447 41.598 17.7879 41.6444 17.8117 41.7012C17.8355 41.758 17.8384 41.8213 17.8198 41.88L16.9998 44.08C16.9832 44.1237 16.9548 44.1617 16.9177 44.19C16.8806 44.2183 16.8363 44.2356 16.7898 44.24C16.3051 44.3102 15.8649 44.561 15.5574 44.9422C15.25 45.3235 15.0981 45.8069 15.1323 46.2954C15.1665 46.784 15.3842 47.2415 15.7417 47.5763C16.0992 47.911 16.5701 48.0981 17.0598 48.1H49.3098C49.6891 48.1 50.0528 48.2507 50.321 48.5189C50.5892 48.7871 50.7398 49.1508 50.7398 49.53C50.7398 49.9093 50.5892 50.273 50.321 50.5412C50.0528 50.8094 49.6891 50.96 49.3098 50.96L17.0998 51Z" fill="#D89078"/>
<path d="M17.1 41.62C17.2675 41.6192 17.4326 41.6604 17.58 41.74L16.8 44C16.2623 44.0888 15.7771 44.3748 15.439 44.8022C15.101 45.2297 14.9345 45.7678 14.972 46.3114C15.0095 46.8551 15.2483 47.3652 15.6418 47.7422C16.0353 48.1191 16.5552 48.3359 17.1 48.35H49.31C49.6229 48.35 49.9231 48.4743 50.1444 48.6956C50.3657 48.9169 50.49 49.217 50.49 49.53C50.49 49.8429 50.3657 50.1431 50.1444 50.3644C49.9231 50.5857 49.6229 50.71 49.31 50.71H17.1C15.8932 50.71 14.7359 50.2306 13.8826 49.3773C13.0293 48.524 12.55 47.3667 12.55 46.16C12.5485 45.0615 12.9479 44.0003 13.6734 43.1754C14.3988 42.3506 15.4003 41.8188 16.49 41.68H16.59C16.7592 41.6568 16.9308 41.6568 17.1 41.68M17.1 41.18C16.8743 41.1664 16.648 41.1901 16.43 41.25C15.2159 41.4042 14.1005 41.9983 13.2951 42.9198C12.4897 43.8413 12.0502 45.0262 12.06 46.25C12.0626 47.5885 12.5955 48.8715 13.542 49.818C14.4885 50.7645 15.7714 51.2974 17.11 51.3H49.31C49.7555 51.3 50.1829 51.123 50.4979 50.8079C50.813 50.4929 50.99 50.0656 50.99 49.62C50.99 49.1744 50.813 48.7471 50.4979 48.4321C50.1829 48.117 49.7555 47.94 49.31 47.94H17.1C16.6758 47.9353 16.269 47.7713 15.9601 47.4806C15.6513 47.1898 15.4631 46.7936 15.4328 46.3705C15.4026 45.9474 15.5326 45.5284 15.797 45.1967C16.0614 44.865 16.4408 44.6449 16.86 44.58C16.9526 44.5697 17.0404 44.5332 17.113 44.4747C17.1857 44.4163 17.2401 44.3383 17.27 44.25L18.05 41.99C18.0901 41.8765 18.088 41.7522 18.0439 41.6402C17.9998 41.5281 17.9167 41.4357 17.81 41.38C17.589 41.271 17.3464 41.2129 17.1 41.21V41.18Z" fill="#4D4D4D"/>
<path d="M14.2998 18.73C14.2671 18.7394 14.2325 18.7394 14.1998 18.73C12.4398 17.95 11.7598 17.62 11.4998 17.48C11.4677 17.462 11.4396 17.4376 11.4172 17.4084C11.3949 17.3792 11.3787 17.3457 11.3698 17.31L10.6298 13.94H1.6298C1.43263 13.9565 1.23418 13.9319 1.04699 13.8678C0.859805 13.8037 0.687959 13.7015 0.542323 13.5675C0.396687 13.4336 0.28043 13.2709 0.200906 13.0897C0.121383 12.9085 0.0803223 12.7128 0.0803223 12.515C0.0803223 12.3171 0.121383 12.1214 0.200906 11.9402C0.28043 11.759 0.396687 11.5963 0.542323 11.4624C0.687959 11.3285 0.859805 11.2262 1.04699 11.1621C1.23418 11.098 1.43263 11.0734 1.6298 11.09H11.7298C12.0564 11.0872 12.3739 11.1971 12.6289 11.4011C12.8839 11.6051 13.0608 11.8908 13.1298 12.21L14.4998 18.45C14.5076 18.4959 14.5035 18.543 14.4877 18.5868C14.4719 18.6306 14.4451 18.6696 14.4098 18.7C14.3756 18.7174 14.3381 18.7276 14.2998 18.73Z" fill="#D89078"/>
<path d="M11.7799 11.32C12.048 11.3184 12.3085 11.4089 12.5178 11.5764C12.7271 11.7438 12.8726 11.9781 12.9299 12.24L14.2999 18.48C12.5099 17.69 11.8499 17.37 11.6199 17.24L10.8299 13.67H1.67988C1.51647 13.6851 1.3517 13.6659 1.19611 13.6137C1.04052 13.5616 0.897532 13.4775 0.776271 13.3669C0.655011 13.2563 0.558149 13.1217 0.491873 12.9715C0.425598 12.8214 0.391367 12.6591 0.391367 12.495C0.391367 12.3309 0.425598 12.1686 0.491873 12.0185C0.558149 11.8683 0.655011 11.7337 0.776271 11.6231C0.897532 11.5125 1.04052 11.4284 1.19611 11.3763C1.3517 11.3241 1.51647 11.3049 1.67988 11.32H11.7799ZM11.7799 10.82H1.67988C1.44903 10.8021 1.21699 10.8322 0.998313 10.9083C0.779636 10.9844 0.579045 11.1048 0.409132 11.2621C0.239218 11.4194 0.10365 11.6101 0.0109352 11.8223C-0.0817794 12.0344 -0.129639 12.2635 -0.129639 12.495C-0.129639 12.7265 -0.0817794 12.9556 0.0109352 13.1677C0.10365 13.3799 0.239218 13.5706 0.409132 13.7279C0.579045 13.8852 0.779636 14.0056 0.998313 14.0817C1.21699 14.1578 1.44903 14.1878 1.67988 14.17H10.4299L11.1299 17.35C11.1449 17.4199 11.1751 17.4857 11.2183 17.5427C11.2615 17.5997 11.3167 17.6466 11.3799 17.68C11.6399 17.82 12.3299 18.15 14.0999 18.94C14.1658 18.954 14.234 18.954 14.2999 18.94C14.4166 18.9453 14.5311 18.906 14.6199 18.83C14.6912 18.7724 14.745 18.696 14.775 18.6093C14.8051 18.5227 14.8102 18.4294 14.7899 18.34L13.4199 12.09C13.3393 11.7161 13.132 11.3816 12.8332 11.1429C12.5344 10.9042 12.1623 10.776 11.7799 10.78V10.82Z" fill="#4D4D4D"/>
<path d="M17.1698 44.7299C17.1131 44.7299 17.058 44.7112 17.0129 44.6769C16.9677 44.6426 16.935 44.5945 16.9198 44.5399L16.1798 41.2399L10.9298 17.5999C10.9203 17.5635 10.9199 17.5253 10.9286 17.4887C10.9373 17.4521 10.9549 17.4182 10.9798 17.3899C11.003 17.362 11.0321 17.3395 11.0649 17.324C11.0977 17.3085 11.1335 17.3002 11.1698 17.2999H55.7698C56.0707 17.2964 56.3681 17.3643 56.6376 17.4982C56.907 17.6321 57.1409 17.828 57.3198 18.0699C57.4953 18.3121 57.6142 18.5905 57.6679 18.8847C57.7215 19.1789 57.7085 19.4814 57.6298 19.7699L50.8998 43.3399C50.7793 43.7479 50.528 44.1049 50.1847 44.3561C49.8414 44.6072 49.4251 44.7386 48.9998 44.7299H17.1698Z" fill="#FFD9C7"/>
<path d="M55.7799 17.55C56.0404 17.5473 56.2978 17.6066 56.5308 17.7231C56.7639 17.8396 56.9658 18.01 57.1199 18.22C57.2741 18.4302 57.3785 18.6726 57.4253 18.929C57.472 19.1854 57.4599 19.449 57.3899 19.7001L50.6599 43.2701C50.553 43.6252 50.333 43.9357 50.0333 44.1541C49.7336 44.3726 49.3707 44.487 48.9999 44.48H17.1699L16.4299 41.18L11.1699 17.55H55.7799ZM55.7799 17.05H11.1699C11.0953 17.0477 11.0213 17.0627 10.9536 17.0939C10.8858 17.1251 10.8263 17.1717 10.7797 17.23C10.7332 17.2882 10.7008 17.3565 10.6852 17.4294C10.6696 17.5023 10.6712 17.5779 10.6899 17.65L15.9399 41.2901L16.6799 44.59C16.7032 44.702 16.7649 44.8023 16.8544 44.8735C16.9439 44.9448 17.0555 44.9825 17.1699 44.98H48.9999C49.472 44.9784 49.9311 44.8248 50.3093 44.5421C50.6875 44.2593 50.9647 43.8625 51.0999 43.41L57.8299 19.84C57.918 19.5141 57.9323 19.1727 57.8717 18.8405C57.8112 18.5084 57.6773 18.1939 57.4799 17.92C57.2798 17.6473 57.0176 17.4261 56.715 17.2748C56.4124 17.1235 56.0781 17.0465 55.7399 17.05H55.7799Z" fill="#4D4D4D"/>
<path d="M13.1699 17.55H11.1699L16.4299 41.18L17.1699 44.48H19.1699L18.4299 41.18L13.1699 17.55Z" fill="#F2B9A7"/>
<path d="M17.8298 56.27C17.8248 55.0183 18.2893 53.8102 19.1318 52.8845C19.9742 51.9587 21.1332 51.3826 22.3798 51.27C22.2143 51.2434 22.0473 51.2267 21.8798 51.22C20.5405 51.22 19.256 51.752 18.3089 52.6991C17.3619 53.6461 16.8298 54.9306 16.8298 56.27C16.8298 57.6093 17.3619 58.8938 18.3089 59.8409C19.256 60.7879 20.5405 61.32 21.8798 61.32C22.0498 61.32 22.2098 61.32 22.3798 61.32C21.1245 61.2067 19.9584 60.6235 19.1147 59.6871C18.271 58.7507 17.8121 57.5302 17.8298 56.27Z" fill="#EF608F"/>
<path d="M41.6199 56.27C41.6148 55.0183 42.0794 53.8102 42.9218 52.8845C43.7642 51.9587 44.9233 51.3826 46.1699 51.27C46.0045 51.2424 45.8375 51.2257 45.6699 51.22C44.3305 51.22 43.046 51.752 42.099 52.6991C41.1519 53.6461 40.6199 54.9306 40.6199 56.27C40.6199 57.6093 41.1519 58.8938 42.099 59.8409C43.046 60.7879 44.3305 61.32 45.6699 61.32C45.8499 61.32 46.0099 61.32 46.1699 61.32C44.919 61.1955 43.7595 60.609 42.918 59.6751C42.0766 58.7412 41.6137 57.527 41.6199 56.27Z" fill="#EF608F"/>
</g>
<defs>
<clipPath id="clip0_301_2">
<rect width="59.66" height="61.82" fill="white"/>
</clipPath>
</defs>
</svg>
