<svg width="398" height="412" viewBox="0 0 398 412" fill="none" xmlns="http://www.w3.org/2000/svg">
<g clip-path="url(#clip0_306_2)">
<path d="M145.964 410.334C138.971 410.334 132.136 408.262 126.321 404.381C120.507 400.5 115.975 394.983 113.299 388.529C110.623 382.075 109.923 374.973 111.287 368.121C112.651 361.269 116.019 354.975 120.963 350.036C125.908 345.096 132.208 341.732 139.067 340.369C145.925 339.006 153.034 339.705 159.495 342.379C165.956 345.052 171.478 349.58 175.363 355.388C179.248 361.197 181.321 368.026 181.321 375.012C181.304 384.375 177.573 393.349 170.946 399.969C164.319 406.589 155.336 410.316 145.964 410.334V410.334Z" fill="#565656"/>
<path d="M145.965 341.356C152.533 341.422 158.935 343.424 164.369 347.111C169.803 350.797 174.027 356.005 176.51 362.08C178.993 368.155 179.625 374.827 178.328 381.26C177.03 387.693 173.86 393.6 169.215 398.24C164.571 402.88 158.658 406.047 152.219 407.343C145.78 408.639 139.101 408.007 133.02 405.527C126.938 403.046 121.726 398.827 118.036 393.398C114.345 387.97 112.341 381.574 112.275 375.012C112.231 370.58 113.072 366.183 114.749 362.08C116.426 357.976 118.906 354.249 122.043 351.114C125.181 347.98 128.912 345.503 133.02 343.827C137.127 342.152 141.528 341.312 145.965 341.356M145.965 338.024C138.642 338.024 131.483 340.193 125.395 344.258C119.306 348.322 114.56 354.099 111.758 360.857C108.956 367.616 108.223 375.053 109.651 382.228C111.08 389.403 114.606 395.994 119.784 401.166C124.962 406.339 131.559 409.862 138.741 411.289C145.923 412.716 153.368 411.984 160.133 409.184C166.899 406.385 172.681 401.644 176.75 395.561C180.818 389.479 182.989 382.327 182.989 375.012C182.972 365.208 179.065 355.81 172.126 348.877C165.186 341.944 155.779 338.042 145.965 338.024V338.024Z" fill="#040303"/>
<path d="M145.965 387.874C143.399 387.888 140.888 387.139 138.749 385.723C136.611 384.308 134.942 382.289 133.954 379.924C132.966 377.559 132.704 374.954 133.202 372.439C133.699 369.925 134.933 367.615 136.747 365.803C138.561 363.991 140.873 362.758 143.39 362.262C145.906 361.765 148.514 362.026 150.881 363.013C153.249 364 155.27 365.668 156.687 367.804C158.104 369.94 158.853 372.449 158.84 375.012C158.84 378.423 157.483 381.695 155.069 384.107C152.654 386.519 149.379 387.874 145.965 387.874V387.874Z" fill="#040303"/>
<path d="M145.965 363.749C148.197 363.736 150.383 364.385 152.246 365.615C154.109 366.844 155.564 368.599 156.428 370.655C157.292 372.712 157.524 374.979 157.097 377.168C156.67 379.357 155.601 381.37 154.027 382.952C152.453 384.534 150.444 385.613 148.255 386.053C146.067 386.493 143.796 386.274 141.732 385.424C139.668 384.573 137.904 383.13 136.662 381.276C135.42 379.423 134.757 377.242 134.757 375.012C134.757 372.036 135.936 369.182 138.036 367.071C140.136 364.961 142.986 363.767 145.965 363.749ZM145.965 360.417C143.072 360.403 140.241 361.248 137.83 362.844C135.418 364.44 133.535 366.714 132.419 369.38C131.303 372.046 131.005 374.983 131.561 377.818C132.117 380.654 133.503 383.261 135.544 385.309C137.584 387.356 140.187 388.753 143.023 389.322C145.859 389.89 148.8 389.605 151.473 388.502C154.147 387.4 156.432 385.529 158.041 383.128C159.649 380.726 160.508 377.901 160.508 375.012C160.508 371.153 158.978 367.45 156.252 364.715C153.527 361.98 149.828 360.434 145.965 360.417Z" fill="#040303"/>
<path d="M304.671 410.334C297.687 410.294 290.87 408.189 285.082 404.284C279.294 400.379 274.794 394.849 272.148 388.391C269.503 381.933 268.831 374.838 270.218 367.999C271.605 361.161 274.988 354.886 279.94 349.966C284.893 345.046 291.193 341.702 298.046 340.355C304.899 339.008 311.998 339.719 318.447 342.398C324.896 345.078 330.407 349.605 334.283 355.409C338.159 361.213 340.228 368.034 340.228 375.012C340.219 379.665 339.292 384.27 337.5 388.565C335.707 392.859 333.085 396.759 329.782 400.04C326.479 403.32 322.561 405.918 318.252 407.685C313.944 409.451 309.328 410.351 304.671 410.334V410.334Z" fill="#565656"/>
<path d="M304.671 341.356C311.239 341.422 317.642 343.424 323.076 347.111C328.509 350.797 332.733 356.005 335.216 362.08C337.699 368.155 338.332 374.827 337.034 381.26C335.736 387.693 332.566 393.6 327.922 398.24C323.277 402.88 317.364 406.047 310.925 407.343C304.486 408.639 297.807 408.007 291.726 405.527C285.645 403.046 280.432 398.827 276.742 393.398C273.051 387.97 271.048 381.574 270.982 375.012C270.937 370.58 271.778 366.183 273.455 362.08C275.132 357.976 277.612 354.249 280.75 351.114C283.887 347.98 287.618 345.503 291.726 343.827C295.833 342.152 300.234 341.312 304.671 341.356M304.671 338.024C297.348 338.024 290.19 340.193 284.101 344.258C278.012 348.322 273.267 354.099 270.464 360.857C267.662 367.616 266.929 375.053 268.357 382.228C269.786 389.403 273.312 395.994 278.49 401.166C283.668 406.339 290.266 409.862 297.448 411.289C304.63 412.716 312.074 411.984 318.84 409.184C325.605 406.385 331.387 401.644 335.456 395.561C339.524 389.479 341.696 382.327 341.696 375.012C341.678 365.208 337.772 355.81 330.832 348.877C323.892 341.944 314.485 338.042 304.671 338.024Z" fill="#040303"/>
<path d="M304.671 387.874C311.782 387.874 317.546 382.116 317.546 375.012C317.546 367.908 311.782 362.149 304.671 362.149C297.56 362.149 291.796 367.908 291.796 375.012C291.796 382.116 297.56 387.874 304.671 387.874Z" fill="#040303"/>
<path d="M304.671 363.749C306.906 363.723 309.099 364.361 310.97 365.582C312.842 366.803 314.308 368.553 315.181 370.609C316.055 372.664 316.298 374.933 315.878 377.126C315.458 379.32 314.395 381.339 312.824 382.928C311.252 384.516 309.244 385.602 307.053 386.048C304.863 386.493 302.589 386.278 300.521 385.43C298.453 384.581 296.685 383.138 295.44 381.283C294.195 379.428 293.53 377.245 293.53 375.012C293.53 372.036 294.709 369.182 296.808 367.071C298.908 364.961 301.759 363.767 304.737 363.749M304.737 360.417C301.848 360.417 299.023 361.273 296.621 362.876C294.218 364.48 292.346 366.76 291.24 369.427C290.134 372.094 289.845 375.028 290.408 377.859C290.972 380.691 292.364 383.291 294.407 385.332C296.45 387.374 299.053 388.764 301.887 389.327C304.721 389.89 307.659 389.601 310.328 388.496C312.998 387.392 315.28 385.521 316.885 383.121C318.49 380.72 319.347 377.899 319.347 375.012C319.347 371.141 317.808 367.429 315.068 364.692C312.328 361.954 308.612 360.417 304.737 360.417V360.417Z" fill="#040303"/>
<path d="M114.076 339.89C105.601 339.872 97.4762 336.506 91.4767 330.525C85.4772 324.544 82.0901 316.434 82.0549 307.967C82.0275 300.233 84.8353 292.756 89.9481 286.949C95.0609 281.141 102.125 277.404 109.807 276.444H110.274C111.517 276.143 112.799 276.03 114.076 276.111C115.442 276.119 116.788 276.438 118.012 277.044C118.378 277.23 118.666 277.539 118.825 277.918C118.984 278.296 119.003 278.718 118.88 279.11L113.409 293.772C113.299 294.062 113.109 294.316 112.861 294.504C112.614 294.693 112.318 294.808 112.008 294.838C108.775 295.305 105.838 296.977 103.787 299.518C101.736 302.058 100.723 305.28 100.951 308.536C101.179 311.792 102.631 314.841 105.016 317.072C107.401 319.303 110.542 320.55 113.809 320.563H328.954C331.484 320.563 333.91 321.567 335.699 323.354C337.488 325.141 338.493 327.566 338.493 330.093C338.493 332.621 337.488 335.045 335.699 336.832C333.91 338.619 331.484 339.623 328.954 339.623L114.076 339.89Z" fill="black"/>
<path d="M114.076 277.377C115.194 277.371 116.295 277.646 117.279 278.177L112.075 293.238C108.488 293.83 105.251 295.736 102.996 298.585C100.741 301.434 99.6302 305.02 99.8803 308.643C100.13 312.266 101.724 315.666 104.349 318.178C106.974 320.69 110.442 322.135 114.076 322.229H328.954C331.042 322.229 333.044 323.058 334.52 324.532C335.996 326.007 336.826 328.007 336.826 330.093C336.826 332.179 335.996 334.179 334.52 335.654C333.044 337.129 331.042 337.957 328.954 337.957H114.076C106.026 337.957 98.3056 334.762 92.6132 329.076C86.9208 323.389 83.7228 315.676 83.7228 307.634C83.7128 300.313 86.3776 293.24 91.217 287.743C96.0564 282.246 102.738 278.702 110.007 277.777H110.674C111.803 277.622 112.948 277.622 114.076 277.777M114.076 274.445C112.571 274.354 111.061 274.512 109.607 274.911V274.911C101.507 275.938 94.0663 279.898 88.6934 286.039C83.3205 292.181 80.3889 300.077 80.4539 308.234C80.4716 317.154 84.0266 325.704 90.3408 332.012C96.6549 338.32 105.214 341.872 114.143 341.889H328.954C331.926 341.889 334.777 340.71 336.879 338.61C338.98 336.51 340.161 333.662 340.161 330.693C340.161 327.723 338.98 324.876 336.879 322.776C334.777 320.676 331.926 319.497 328.954 319.497H114.076C111.247 319.466 108.533 318.373 106.472 316.435C104.412 314.497 103.156 311.856 102.955 309.037C102.753 306.217 103.62 303.425 105.384 301.214C107.148 299.004 109.679 297.536 112.475 297.104C113.093 297.035 113.679 296.792 114.164 296.402C114.648 296.013 115.011 295.493 115.211 294.905L120.414 279.843C120.682 279.086 120.668 278.258 120.373 277.511C120.079 276.765 119.525 276.149 118.813 275.777C117.339 275.051 115.72 274.664 114.076 274.644V274.445Z" fill="#040303"/>
<path d="M95.3972 124.826C95.1793 124.889 94.948 124.889 94.7301 124.826C82.9889 119.628 78.4525 117.429 76.718 116.496C76.5038 116.376 76.3164 116.213 76.1672 116.019C76.0181 115.824 75.9104 115.601 75.8508 115.363L70.9141 92.9033H10.8739C9.55855 93.0134 8.23464 92.8497 6.98589 92.4225C5.73714 91.9952 4.59073 91.3137 3.61918 90.4211C2.64762 89.5285 1.87206 88.4442 1.34154 87.2367C0.811029 86.0293 0.537109 84.725 0.537109 83.4064C0.537109 82.0877 0.811029 80.7834 1.34154 79.576C1.87206 78.3685 2.64762 77.2842 3.61918 76.3916C4.59073 75.4989 5.73714 74.8175 6.98589 74.3902C8.23464 73.963 9.55855 73.7992 10.8739 73.9094H78.2524C80.4309 73.891 82.5492 74.6232 84.2504 75.9829C85.9516 77.3425 87.1318 79.2463 87.592 81.3737L96.7314 122.96C96.7836 123.266 96.7558 123.58 96.6506 123.872C96.5454 124.164 96.3664 124.424 96.131 124.626C95.9027 124.743 95.6529 124.811 95.3972 124.826Z" fill="black"/>
<path d="M78.586 75.4422C80.3744 75.4315 82.1122 76.0346 83.5087 77.1507C84.9052 78.2668 85.8757 79.8282 86.2578 81.5736L95.3973 123.16C83.4559 117.895 79.053 115.762 77.5186 114.896L72.2484 91.1038H11.2075C10.1174 91.2044 9.01821 91.0767 7.98026 90.7289C6.9423 90.3811 5.98838 89.8208 5.17943 89.0838C4.37049 88.3469 3.72431 87.4495 3.28218 86.4489C2.84005 85.4484 2.61169 84.3667 2.61169 83.273C2.61169 82.1793 2.84005 81.0976 3.28218 80.0971C3.72431 79.0965 4.37049 78.1991 5.17943 77.4622C5.98838 76.7252 6.9423 76.165 7.98026 75.8171C9.01821 75.4693 10.1174 75.3416 11.2075 75.4422H78.586M78.586 72.11H11.2075C9.66753 71.991 8.11953 72.1913 6.66071 72.6984C5.20188 73.2054 3.86371 74.0083 2.7302 75.0565C1.59668 76.1047 0.692286 77.3756 0.073774 78.7896C-0.544738 80.2035 -0.864014 81.7299 -0.864014 83.273C-0.864014 84.8161 -0.544738 86.3425 0.073774 87.7564C0.692286 89.1704 1.59668 90.4413 2.7302 91.4896C3.86371 92.5378 5.20188 93.3406 6.66071 93.8476C8.11953 94.3547 9.66753 94.555 11.2075 94.4361H69.58L74.2498 115.629C74.3503 116.095 74.5516 116.534 74.8397 116.913C75.1279 117.293 75.4957 117.606 75.9176 117.828C77.6521 118.762 82.2551 120.961 94.063 126.226C94.5029 126.319 94.9575 126.319 95.3973 126.226C96.1763 126.261 96.9395 125.999 97.532 125.493C98.008 125.109 98.3666 124.599 98.567 124.022C98.7675 123.445 98.8018 122.823 98.6661 122.227L89.5267 80.5739C88.9889 78.0823 87.6064 75.8527 85.6129 74.2619C83.6194 72.6711 81.1372 71.8168 78.586 71.8434V72.11Z" fill="#040303"/>
<path d="M114.543 298.103C114.165 298.103 113.798 297.979 113.497 297.75C113.195 297.522 112.977 297.201 112.876 296.837L107.939 274.844L72.9155 117.295C72.8522 117.053 72.8495 116.798 72.9077 116.554C72.9658 116.31 73.0831 116.084 73.249 115.896C73.404 115.71 73.5977 115.56 73.8166 115.456C74.0355 115.353 74.2744 115.298 74.5166 115.296H372.049C374.056 115.272 376.041 115.725 377.838 116.617C379.636 117.509 381.196 118.815 382.39 120.428C383.56 122.041 384.354 123.897 384.712 125.858C385.069 127.819 384.983 129.834 384.458 131.757L339.561 288.84C338.757 291.559 337.081 293.938 334.791 295.612C332.5 297.286 329.723 298.161 326.886 298.103H114.543Z" fill="#040303" fill-opacity="0.57"/>
<path d="M372.116 116.962C373.854 116.943 375.571 117.339 377.126 118.115C378.68 118.892 380.027 120.027 381.055 121.427C382.084 122.828 382.781 124.443 383.093 126.152C383.405 127.861 383.324 129.618 382.857 131.291L337.96 288.373C337.247 290.74 335.779 292.809 333.78 294.265C331.781 295.721 329.359 296.484 326.886 296.437H114.543L109.607 274.444L74.5167 116.962H372.116ZM372.116 113.63H74.5167C74.0194 113.614 73.5254 113.714 73.0736 113.922C72.6219 114.13 72.2249 114.441 71.9141 114.829C71.6033 115.217 71.3873 115.672 71.2833 116.158C71.1792 116.644 71.1899 117.147 71.3145 117.629L106.338 275.178L111.275 297.17C111.43 297.917 111.842 298.585 112.439 299.06C113.036 299.534 113.781 299.786 114.543 299.77H326.886C330.036 299.758 333.098 298.735 335.621 296.851C338.144 294.966 339.993 292.321 340.895 289.306L385.792 132.224C386.38 130.052 386.475 127.776 386.071 125.562C385.667 123.349 384.774 121.253 383.457 119.428C382.122 117.61 380.373 116.136 378.354 115.128C376.336 114.119 374.106 113.606 371.849 113.63H372.116Z" fill="#040303"/>
<path d="M87.8589 116.962H74.5166L109.607 274.445L114.543 296.437H127.886L122.949 274.445L87.8589 116.962Z" fill="#090909"/>
<path d="M118.946 375.012C118.912 366.67 122.012 358.619 127.632 352.449C133.252 346.28 140.984 342.44 149.3 341.689C148.196 341.512 147.082 341.401 145.964 341.356C137.029 341.356 128.46 344.902 122.142 351.214C115.825 357.525 112.275 366.086 112.275 375.012C112.275 383.938 115.825 392.499 122.142 398.81C128.46 405.122 137.029 408.668 145.964 408.668C147.098 408.668 148.166 408.668 149.3 408.668C140.926 407.913 133.146 404.026 127.518 397.785C121.89 391.545 118.828 383.411 118.946 375.012V375.012Z" fill="#565656"/>
<path d="M277.653 375.012C277.619 366.67 280.718 358.619 286.338 352.449C291.958 346.28 299.69 342.44 308.006 341.689C306.903 341.506 305.789 341.395 304.671 341.356C295.736 341.356 287.167 344.902 280.849 351.214C274.531 357.525 270.981 366.086 270.981 375.012C270.981 383.938 274.531 392.499 280.849 398.81C287.167 405.122 295.736 408.668 304.671 408.668C305.871 408.668 306.939 408.668 308.006 408.668C299.661 407.838 291.926 403.93 286.313 397.706C280.699 391.481 277.611 383.39 277.653 375.012V375.012Z" fill="#565656"/>
</g>
<defs>
<clipPath id="clip0_306_2">
<rect width="398" height="412" fill="white"/>
</clipPath>
</defs>
</svg>
